# AI-Optimized CPU Architecture 3D Model
mtllib AI_Optimized_CPU.mtl
v -6.0000 -4.5000 -0.4000
v 6.0000 -4.5000 -0.4000
v 6.0000 4.5000 -0.4000
v -6.0000 4.5000 -0.4000
v -6.0000 -4.5000 0.4000
v 6.0000 -4.5000 0.4000
v 6.0000 4.5000 0.4000
v -6.0000 4.5000 0.4000
v -5.4000 -3.9000 0.3750
v 5.4000 -3.9000 0.3750
v 5.4000 3.9000 0.3750
v -5.4000 3.9000 0.3750
v -5.4000 -3.9000 0.7250
v 5.4000 -3.9000 0.7250
v 5.4000 3.9000 0.7250
v -5.4000 3.9000 0.7250
v -4.3500 1.3750 0.7750
v -2.0500 1.3750 0.7750
v -2.0500 3.0250 0.7750
v -4.3500 3.0250 0.7750
v -4.3500 1.3750 1.2250
v -2.0500 1.3750 1.2250
v -2.0500 3.0250 1.2250
v -4.3500 3.0250 1.2250
v -1.1500 1.3750 0.7750
v 1.1500 1.3750 0.7750
v 1.1500 3.0250 0.7750
v -1.1500 3.0250 0.7750
v -1.1500 1.3750 1.2250
v 1.1500 1.3750 1.2250
v 1.1500 3.0250 1.2250
v -1.1500 3.0250 1.2250
v 2.0500 1.3750 0.7750
v 4.3500 1.3750 0.7750
v 4.3500 3.0250 0.7750
v 2.0500 3.0250 0.7750
v 2.0500 1.3750 1.2250
v 4.3500 1.3750 1.2250
v 4.3500 3.0250 1.2250
v 2.0500 3.0250 1.2250
v -2.7500 -1.7250 0.7750
v -0.4500 -1.7250 0.7750
v -0.4500 -0.0750 0.7750
v -2.7500 -0.0750 0.7750
v -2.7500 -1.7250 1.2250
v -0.4500 -1.7250 1.2250
v -0.4500 -0.0750 1.2250
v -2.7500 -0.0750 1.2250
v 0.4500 -1.7250 0.7750
v 2.7500 -1.7250 0.7750
v 2.7500 -0.0750 0.7750
v 0.4500 -0.0750 0.7750
v 0.4500 -1.7250 1.2250
v 2.7500 -1.7250 1.2250
v 2.7500 -0.0750 1.2250
v 0.4500 -0.0750 1.2250
v -3.9000 -3.5250 0.7750
v 3.9000 -3.5250 0.7750
v 3.9000 -2.2750 0.7750
v -3.9000 -2.2750 0.7750
v -3.9000 -3.5250 1.2250
v 3.9000 -3.5250 1.2250
v 3.9000 -2.2750 1.2250
v -3.9000 -2.2750 1.2250
v -4.8500 -1.6250 0.7750
v -3.1500 -1.6250 0.7750
v -3.1500 -0.3750 0.7750
v -4.8500 -0.3750 0.7750
v -4.8500 -1.6250 1.2250
v -3.1500 -1.6250 1.2250
v -3.1500 -0.3750 1.2250
v -4.8500 -0.3750 1.2250
v 3.1500 -1.6250 0.7750
v 4.8500 -1.6250 0.7750
v 4.8500 -0.3750 0.7750
v 3.1500 -0.3750 0.7750
v 3.1500 -1.6250 1.2250
v 4.8500 -1.6250 1.2250
v 4.8500 -0.3750 1.2250
v 3.1500 -0.3750 1.2250
v 3.1500 2.5000 0.7750
v 4.8500 2.5000 0.7750
v 4.8500 3.5000 0.7750
v 3.1500 3.5000 0.7750
v 3.1500 2.5000 1.2250
v 4.8500 2.5000 1.2250
v 4.8500 3.5000 1.2250
v 3.1500 3.5000 1.2250
v -4.9000 2.3750 1.3750
v -2.5000 2.3750 1.3750
v -2.5000 3.6250 1.3750
v -4.9000 3.6250 1.3750
v -4.9000 2.3750 1.9250
v -2.5000 2.3750 1.9250
v -2.5000 3.6250 1.9250
v -4.9000 3.6250 1.9250
v -1.9000 2.3750 1.3750
v 1.9000 2.3750 1.3750
v 1.9000 3.6250 1.3750
v -1.9000 3.6250 1.3750
v -1.9000 2.3750 1.9250
v 1.9000 2.3750 1.9250
v 1.9000 3.6250 1.9250
v -1.9000 3.6250 1.9250
v -5.3500 -4.1500 0.8000
v -3.6500 -4.1500 0.8000
v -3.6500 -3.4500 0.8000
v -5.3500 -3.4500 0.8000
v -5.3500 -4.1500 1.2000
v -3.6500 -4.1500 1.2000
v -3.6500 -3.4500 1.2000
v -5.3500 -3.4500 1.2000
v 3.6500 -4.1500 0.8000
v 5.3500 -4.1500 0.8000
v 5.3500 -3.4500 0.8000
v 3.6500 -3.4500 0.8000
v 3.6500 -4.1500 1.2000
v 5.3500 -4.1500 1.2000
v 5.3500 -3.4500 1.2000
v 3.6500 -3.4500 1.2000
v -5.4000 -0.4000 0.8000
v -4.6000 -0.4000 0.8000
v -4.6000 0.8000 0.8000
v -5.4000 0.8000 0.8000
v -5.4000 -0.4000 1.2000
v -4.6000 -0.4000 1.2000
v -4.6000 0.8000 1.2000
v -5.4000 0.8000 1.2000
v 4.6000 -0.4000 0.8000
v 5.4000 -0.4000 0.8000
v 5.4000 0.8000 0.8000
v 4.6000 0.8000 0.8000
v 4.6000 -0.4000 1.2000
v 5.4000 -0.4000 1.2000
v 5.4000 0.8000 1.2000
v 4.6000 0.8000 1.2000
usemtl package
f 1 2 3 4
f 5 8 7 6
f 1 5 6 2
f 2 6 7 3
f 3 7 8 4
f 5 1 4 8
usemtl die
f 9 10 11 12
f 13 16 15 14
f 9 13 14 10
f 10 14 15 11
f 11 15 16 12
f 13 9 12 16
usemtl core
f 17 18 19 20
f 21 24 23 22
f 17 21 22 18
f 18 22 23 19
f 19 23 24 20
f 21 17 20 24
f 25 26 27 28
f 29 32 31 30
f 25 29 30 26
f 26 30 31 27
f 27 31 32 28
f 29 25 28 32
f 33 34 35 36
f 37 40 39 38
f 33 37 38 34
f 34 38 39 35
f 35 39 40 36
f 37 33 36 40
f 41 42 43 44
f 45 48 47 46
f 41 45 46 42
f 42 46 47 43
f 43 47 48 44
f 45 41 44 48
f 49 50 51 52
f 53 56 55 54
f 49 53 54 50
f 50 54 55 51
f 51 55 56 52
f 53 49 52 56
usemtl cache
f 57 58 59 60
f 61 64 63 62
f 57 61 62 58
f 58 62 63 59
f 59 63 64 60
f 61 57 60 64
usemtl alu
f 65 66 67 68
f 69 72 71 70
f 65 69 70 66
f 66 70 71 67
f 67 71 72 68
f 69 65 68 72
usemtl control
f 73 74 75 76
f 77 80 79 78
f 73 77 78 74
f 74 78 79 75
f 75 79 80 76
f 77 73 76 80
usemtl fpu
f 81 82 83 84
f 85 88 87 86
f 81 85 86 82
f 82 86 87 83
f 83 87 88 84
f 85 81 84 88
usemtl npu
f 89 90 91 92
f 93 96 95 94
f 89 93 94 90
f 90 94 95 91
f 91 95 96 92
f 93 89 92 96
usemtl ai
f 97 98 99 100
f 101 104 103 102
f 97 101 102 98
f 98 102 103 99
f 99 103 104 100
f 101 97 100 104
usemtl io
f 105 106 107 108
f 109 112 111 110
f 105 109 110 106
f 106 110 111 107
f 107 111 112 108
f 109 105 108 112
f 113 114 115 116
f 117 120 119 118
f 113 117 118 114
f 114 118 119 115
f 115 119 120 116
f 117 113 116 120
usemtl power
f 121 122 123 124
f 125 128 127 126
f 121 125 126 122
f 122 126 127 123
f 123 127 128 124
f 125 121 124 128
f 129 130 131 132
f 133 136 135 134
f 129 133 134 130
f 130 134 135 131
f 131 135 136 132
f 133 129 132 136
